<?xml version="1.0" encoding="UTF-8"?>
<svg id="Layer_1" xmlns="http://www.w3.org/2000/svg" version="1.1" viewBox="0 0 288 288">
  <!-- Generator: Adobe Illustrator 30.0.0, SVG Export Plug-In . SVG Version: 2.1.1 Build 123)  -->
  <defs>
    <style>
      .st0 {
        fill: #04312e;
      }

      .st1 {
        fill: #037171;
      }

      .st2 {
        fill: #00b9ae;
      }

      .st3 {
        fill: #27bcb9;
      }
    </style>
  </defs>
  <g>
    <circle class="st0" cx="144" cy="144" r="144"/>
    <path class="st2" d="M144,5c37.1,0,72,14.5,98.3,40.7,26.3,26.3,40.7,61.2,40.7,98.3s-14.5,72-40.7,98.3c-26.3,26.3-61.2,40.7-98.3,40.7s-72-14.5-98.3-40.7c-26.3-26.3-40.7-61.2-40.7-98.3s14.5-72,40.7-98.3C72,19.5,106.9,5,144,5M144,0C64.5,0,0,64.5,0,144s64.5,144,144,144,144-64.5,144-144S223.5,0,144,0h0Z"/>
  </g>
  <g>
    <path class="st2" d="M79.8,68.7c-.3-.7-.6-1.1-.9-1.8-.4-.7-.8-1.1-1.2-1.7-.4-.6-.7-1.1-1.2-1.7-.5-.7-.9-1.1-1.4-1.8-.6-.7-.9-1.3-1.5-2.1-.4-.6-.7-1.1-1.1-1.8-.3-.5-.4-.8-.7-1.2-.3-.5-.6-.8-.9-1.2-.4-.6-.7-1-1.1-1.6-.3-.4-.5-.7-.8-1.1-.4-.6-.6-1.3-.6-1.6,0-.2,0-.5,0-.6.2-.6.5-.8.9-1.1.6-.4,1-.6,1.6-1,.3-.2.4-.3.9-.7.2-.2.6-.5,1.1-.8.8-.6,1.8-1.1,2.6-1.6,2.2-1.4,2-1.4,3.7-2.1,0,0,.8-.4,1.3-.5.4-.1.7-.2,1.2-.2.3,0,.5,0,.8,0,.5,0,.8,0,1.2,0,.4,0,.7,0,1-.1,1.4-.2,2.1,0,2.9.2.5.1.6.2.9.3.3.2.5.3.9.4.5.1.8.2,1.3.4,2,.9,3.5,3.1,3.7,3.3.4.6.6,1,.9,1.5.7,1.3.9,1.7,1.3,3.3,0,.1.4,1.1.4,2,0,.7-.1,1-.2,1.9,0,.3,0,1-.4,1.9-.3.7-.6,1.2-1.3,2.4-.2.3-.3.6-.5.9-.8,1.4-1.8,2.1-2.9,3.2-.6.5-1,.9-1.6,1.4-.3.2-.5.4-.9.6-1.1.7-2,1.2-3.1,1.9-1,.7-1.6,1.3-2.6,1.9-1,.7-1.9.8-2.6.5-.4-.2-.6-.4-.7-.7l-.5-.8ZM81.6,52.2c-.1,0-.2.2-.3.4,0,.2,0,.4,0,.6,0,.3.3,1,.7,1.6.3.5.7.8,1,1.4.3.4.7,1.3,1.2,1.5.2,0,.4.1.5.1.3,0,.6-.1.6-.1.2-.2.4-.4.8-.8.3-.3.6-.5.9-.9.2-.2.2-.3.3-.4.2-.3.3-.6.3-1,0-.5,0-.9,0-1-.1-.3-.3-.6-.6-1.2-.4-.7-.7-.8-1.2-1-.3-.1-.5-.2-.8-.3-.9-.1-1.7.3-2.3.6-.4.2-.8.4-1,.5h0Z"/>
    <path class="st2" d="M109.3,47.2c.1.3.2.5.4.8.1.3.1.4.2.7.2.5.2.8.4,1.2.2.6.7,1.4.7,1.5.2.3.4.6.5.9.5,1.3-.5,2-1.3,2.4-.8.3-1.4.5-2.3.8-.6.3-1,.5-1.6.8l-1.2.5c-.7.3-1,.3-1.4.4-.3,0-.5,0-.7-.1-.4-.2-.6-.8-.6-.8-.2-.5-.3-.9-.5-1.5l-1.4-3.3c-.2-.5-.3-.8-.5-1.3-.1-.5-.2-.8-.4-1.2-.3-.7-.5-1.1-.8-1.7l-.6-1.5c-.2-.5-.4-.8-.6-1.2-.2-.5-.4-1-.6-1.5-.3-.7-.6-1.3-.8-2-.2-.5-.3-.9-.5-1.4-.1-.4-.3-.6-.4-1-.2-.4-.4-.7-.6-1.1-.1-.3-.3-.5-.4-.8-.2-.4-.2-.5-.2-.8,0-.7,0-1.3,1.1-1.8.7-.3,1.3-.3,2-.6.4-.2.7-.4,1.1-.5,1.3-.7,2-1,2.7-1.2.3,0,.5,0,.6,0,.4,0,.7.1.8.2.7.3.8.7,1,1.1.5,1.1.6,1.9,1.1,3,.5,1.3,1.1,2.2,1.6,3.5.5,1.1.6,1.9,1.1,3.1l1.1,2.7c.2.4.3.7.5,1.1.2.3.3.5.4.8h0Z"/>
    <path class="st2" d="M108.7,28.6c.8-.2,1.4-.2,2.1-.4.4,0,.7-.2,1.1-.3.5-.1.9,0,1.4-.2.5-.1.9-.3,1.5-.4,1-.2,1.4.2,1.8.6.3.3.5.6.7.9.2.3.3.6.5.9.2.3.3.4.4.7,0,.1.2.2.2.4.2.4.4.7.5,1.1.2.4.2.8.4,1.2.1.3.3.5.5.8.2.4.3.7.6,1.1.5.8.5.9.7,1.4,0,.2.5,1.4.7,1.6.1.2.2.3.3.3,0,0,0,0,.1-.2,0-.2,0-.5,0-.7,0-.3,0-.5,0-.8,0-.2,0-.3,0-.5,0-.4.1-.7.2-.9,0-.2,0-.4,0-.6,0-.3,0-.5,0-.7,0-.7,0-1.2,0-1.9,0-.8.2-1.4.3-2.2,0-.4,0-.8,0-1.2,0-.6,0-1.8,0-1.8,0-.3.1-.7.3-1,.3-.4.9-.7,1.3-.8.5-.1.9,0,1.4-.2.3,0,.5-.1.8-.2,0,0,.4-.2.8-.3.6-.1,1-.1,1.6-.3,1.2-.2,1.7-.4,2.4-.2.5.2.8.6.8,1,.1.6-.1,2.2-.2,2.9-.1.7-.1.7-.2,1.1,0,.6,0,.8.1,1.4,0,.3,0,.5,0,.7,0,.3,0,.5,0,.8,0,.2,0,.3,0,.5,0,.6-.2,1-.2,1.6,0,.5,0,.9,0,1.4,0,.5-.1.9-.3,1.3,0,.3,0,.5-.1.8,0,.2,0,.4,0,.6,0,.4,0,.8,0,1.2,0,.4-.2.7-.3,1.2,0,.3,0,.4-.1.7,0,.5,0,.9,0,1.1,0,.2,0,.4,0,.7,0,.3,0,.5,0,.8,0,.4,0,.7-.1,1.1-.1.7-.3,1.2-.3,1.9,0,.5,0,1.4-.3,2,0,.1-.2.3-.2.3-.2.1-.6.3-1.2.5-.4,0-.7.1-1.1.2-.3,0-.5.2-.7.2-.3.1-.6.2-.9.2-.6.1-1.1.2-1.3.2-.2,0-.9,0-1.6.2-.5.1-1,.3-1.2.3-.4.1-.6.2-1,.3-1.3.3-2.1-.3-2.8-1.5-.2-.3-.3-.6-.5-.9-.3-.4-.5-.7-.7-1.2-.3-.5-.4-1-.7-1.5-.3-.5-.5-.8-.8-1.2-.2-.3-.3-.6-.4-1,0-.1-.4-1.1-.8-1.8-.1-.2-.2-.3-.4-.5-.1-.2-.2-.3-.3-.4-.2-.2-.2-.3-.4-.5-.2-.3-.3-.5-.5-.7-.4-.7-.7-1.1-1.1-1.9-.9-1.8-1.7-4.2-2.9-5.9-.2-.3-.4-.6-.7-1-.3-.4-.4-.8-.4-1-.3-1.3.5-1.7,1.1-1.9h.4Z"/>
    <path class="st2" d="M142.1,23.9c.7,0,1.3,0,2,0,.4,0,.5,0,.7,0,.2,0,.3,0,.4,0h.5c.2,0,.3,0,.5,0h1.3c.3,0,.5,0,.8.1.3,0,.5,0,.7,0,.3,0,.6,0,.9,0,.2,0,.4,0,.7,0,.3,0,.6,0,.9,0,.4,0,.6,0,.9,0,.2,0,.3,0,.6,0,.2,0,.3,0,.5,0,.1,0,.1,0,.2,0,.3,0,.5.3.5.3.4.4.5,1,.5,1.9,0,.6,0,1,0,1.6,0,.6,0,1.1,0,1.7,0,.8-.3,1.5-.7,1.7-.2.1-.3.1-.6.1-.4,0-.6,0-.9,0-.5,0-.8,0-1.3,0-.6,0-1-.2-1.7-.2-.6,0-.9,0-1.5,0-.4,0-.7,0-1.2,0h-.2c0,0-1.1,0-1.1.8,0,.2,0,.6.3.7.4.3,1.1.3,1.1.3h.4c.4,0,.7,0,1.1,0,.5,0,.6,0,.9,0,.3,0,.5,0,.8,0h.3c.2,0,.4,0,.6,0,.6,0,1,0,1.5,0,.8,0,1.3,0,1.6.4,0,0,0,.1,0,.1.1.2.1.4.2.6,0,.2,0,.4,0,.7v.8c0,.8.1,1.4,0,2.2,0,.6-.2,1-.4,1.2-.1,0-.2.1-.4.1-.3.1-.3,0-.5,0-.2,0-.4,0-.7,0-.3,0-.5,0-.8,0-.6,0-1.1,0-1.7,0-.5,0-.8,0-1.3,0-.6,0-1,0-1.6,0-.6,0-1,0-1.2.3-.1.1-.1.4-.1.4,0,.4.2.6.4.7.3.3.9.4,1.7.4.7,0,.8,0,1.2-.1.6,0,.4,0,.8,0h1.3c.2,0,.5,0,.7,0,.2,0,.5,0,.7,0,.3,0,.5,0,.8,0,.5,0,.8,0,1,.2.1.1.3.4.3.4.3.4.5.9.5,1.7,0,.4,0,.7,0,1.2,0,.7,0,1.2,0,1.9,0,.4,0,1.5-.3,1.9-.4.6-1.1.6-1.6.6-.9,0-1.5-.2-2.4-.1-.5,0-.8,0-1.2,0-.7,0-1.2,0-1.9,0-.9,0-1.6-.2-2.6-.2-1.1,0-1.9,0-3,0-1,0-1.7-.2-2.7-.1-.7,0-1.5.1-2.2.1-1.6,0-1.7-1.1-1.7-1.7,0-.6,0-.9.1-1.5,0-.5,0-.8,0-1.3,0-.6,0-1.1,0-1.7,0-.4,0-.7,0-1,0-.7.2-1.3.2-2,0-.6,0-1.1,0-1.7,0-.4,0-.7,0-1.1s0-.6,0-1c0-.4,0-.7,0-1.1,0-.4,0-.7,0-1,0-.5,0-.8,0-1.2,0-.8,0-1.4.2-2.2,0-.4,0-.7,0-1,0-.7,0-1.1,0-1.8,0-.4,0-.7,0-1.1,0-.9.3-1.8,1.1-2.1.2,0,.3-.1.7-.1.7,0,1.2,0,2,.1.5,0,.9,0,1.4,0h.7Z"/>
    <path class="st2" d="M169.1,26.2c.3,0,.5.2.9.3s.6.2.9.3c.3.1.5.2.8.3l1,.3c.5.1.8.2,1.4.4.5,0,.8.1,1.3.3.7.2,1.2.4,1.9.6l1.7.5c.6.2,1,.3,1.6.5,1,.3,1.8.4,2.8.7.6.2,1.3.4,1.5.5.2,0,.5.3.7.7.2.5.2.8,0,1.5-.2.7-.5,1.2-.7,2-.1.5-.2.9-.4,1.4,0,.3,0,.6-.2.9-.2.9-.7,1.4-1.7,1.1-.5-.1-.8-.3-1.3-.4-.6-.2-.9-.2-1.3-.2-.9,0-1.4.6-1.7,1.7-.1.5-.3.8-.4,1.3,0,.3,0,.5-.2.8-.1.4-.2.7-.3,1.1-.1.3-.2.6-.3.9-.1.4-.2.7-.4,1.1-.1.4-.2.7-.3,1.1l-.3,1c-.2.7-.3,1.3-.5,2-.2.7-.2.6-.3,1.1-.1.7,0,1.1-.3,1.8-.2.5-.4.8-.7,1-.7.5-1.5.3-2.1.2-.4,0-.8-.2-1.2-.3-.8-.2-1.4-.5-2.2-.7-.7-.2-1.2-.3-1.8-.4-.2,0-.4-.1-.5-.2-.3-.2-.9-.7-1-1.2,0-.2,0-.7.1-1.2.1-.5.3-.8.4-1.2.1-.4.2-.7.3-1.1.3-1.1.4-1.9.8-3.1.3-1.2.7-2,1.1-3.2.2-.9.4-1.5.6-2.4.1-.5.3-.9.4-1.4.2-.7.2-1,0-1.4,0-.1,0-.3-.2-.4-.2-.2-.6-.3-.9-.4-.3-.1-.4-.2-.7-.4-.2,0-.4-.1-.7-.2-.7-.2-1.1-.8-1.2-1.2,0-.3,0-.9.1-1.2l.3-1.2c0-.3.2-.6.3-.9.1-.4.2-.8.3-1.2,0-.4.1-.7.2-.8.2-.6.4-.9.8-1.1.2-.2.3-.2.4-.2.2,0,.4,0,.8,0h.3Z"/>
    <path class="st2" d="M196.4,35.9c.7.3,1.2.5,1.8.8.3.2.4.2.6.4.2,0,.2.2.4.2l.4.2c.2,0,.2.2.4.2l1.1.6c.3.1.4.3.7.5.2.1.4.1.7.3.3.1.5.2.8.4.2.1.4.2.6.3.3.1.5.3.8.5.3.2.5.2.9.4.2,0,.3.2.5.3.1.1.3.1.4.3.1,0,.1,0,.2.1.2.2.3.4.3.5.2.5,0,1.1-.4,1.9-.3.5-.5.9-.7,1.4-.3.6-.4,1-.7,1.5-.4.7-.9,1.2-1.4,1.3-.2,0-.3,0-.6-.2-.3-.2-.5-.3-.8-.5-.4-.2-.8-.4-1.2-.6-.6-.3-.9-.6-1.4-.9-.5-.3-.9-.3-1.4-.6-.4-.2-.6-.4-1-.6h-.2c0-.1-.9-.7-1.3,0,0,.2-.2.5,0,.7.2.5.8.8.8.8l.3.2c.4.2.6.4,1,.5.5.2.5.2.9.3.2.1.4.3.7.4l.3.2c.2.1.3.2.5.3.5.2.9.4,1.4.6.7.4,1.1.6,1.2,1.1,0,0,0,.1,0,.2,0,.2,0,.4-.1.6,0,.2-.1.3-.3.7l-.4.7c-.4.7-.5,1.3-.9,2-.3.5-.6.8-.9.9-.2,0-.3,0-.4,0-.3,0-.3,0-.5-.1-.2-.1-.4-.2-.6-.4s-.5-.2-.7-.3c-.6-.3-1-.5-1.5-.8-.4-.2-.7-.3-1.2-.6-.5-.3-.9-.5-1.4-.8-.5-.3-.9-.4-1.2-.3-.2,0-.3.3-.3.3-.2.3,0,.6,0,.8.2.4.6.7,1.4,1.1.6.3.8.3,1.1.4.5.2.4.2.8.4l1.2.6c.2,0,.4.1.6.3.2,0,.4.2.6.3.2.1.5.2.7.3.4.2.7.4.8.7,0,.2.1.5.1.5.1.5,0,1-.3,1.7-.2.4-.4.6-.6,1-.3.7-.5,1.1-.8,1.7-.2.4-.7,1.3-1.1,1.5-.6.4-1.2.1-1.7-.1-.8-.4-1.3-.8-2.1-1.2-.4-.2-.7-.3-1.1-.5-.7-.3-1.1-.5-1.7-.8-.8-.4-1.4-.9-2.2-1.3-1-.5-1.7-.8-2.7-1.3-.9-.4-1.5-.9-2.3-1.3-.7-.3-1.4-.6-2-.9-1.5-.8-1-1.7-.7-2.3.3-.5.5-.8.8-1.3.3-.4.4-.7.6-1.2.3-.6.5-.9.8-1.5.2-.3.3-.6.5-.9.4-.6.7-1.1,1-1.7.3-.6.5-1,.7-1.6.1-.4.2-.6.4-1s.3-.5.5-.9.3-.7.5-1c.2-.3.3-.6.5-.9.2-.4.3-.7.5-1.1.4-.7.7-1.2,1.1-1.9.2-.3.3-.6.5-.9.3-.6.5-1,.8-1.6.1-.4.2-.6.4-1,.4-.8,1-1.5,1.9-1.4.2,0,.3,0,.7.2.7.2,1.1.6,1.7,1,.5.2.8.4,1.3.6l.7.3Z"/>
    <path class="st2" d="M207,72.6c-.1-.1-.9-.9-1-1.1-.2-.2-.3-.4-.5-.6-.5-.5-.9-.8-1.3-1.3-.5-.6-.8-1.2-.9-1.4-.2-.4-.5-1-.7-1.5,0-.3-.1-.5-.2-.8,0-.3-.1-.9-.1-1.7,0-.4,0-.7,0-1.2,0-.7,0-1.1,0-1.8.2-2.1,1.9-4.4,2-4.5.1-.2.2-.3.3-.5.2-.2.5-1,1.1-1.6.7-.8,1.8-1.9,2-2,.3-.3.6-.4.7-.5.5-.3.9-.5,1.4-.7.7-.4.9-.6,1.8-.9.8-.3,1.6-.4,2-.4.8,0,1.9,0,2.1,0,1,0,1.5,0,2.8.5.6.2,2.5,1.2,3,1.5.5.3,1.2.9,1.3,1,1.4,1.1,2.5,2.2,2.9,2.7.2.2.4.6.5.9.2.5.1.7-.1,1l-.2.3c-.2.2-.3.5-.6.7-.5.5-.8.9-1.3,1.4-.7.9-1,1.6-1.8,2.5-.2.3-1,1.1-1.6,1-.2,0-.5-.2-.9-.4-.4-.3-.6-.7-1.1-1-.3-.2-.6-.4-.9-.6-.2-.1-.3-.3-.5-.4-.2-.2-.4-.3-.6-.4-.5-.3-.8-.5-1.5-.5-.7,0-1.6.1-2.3,1-.2.3-.3.5-.4.7-.1.2-.4,1.2-.4,1.5,0,.2,0,.5,0,.5.2.8,1,1.8,1.5,2.2.7.6,1.4.7,2.1,1.3.6.5,1.2,1.1.8,2.1-.1.4-.4.8-.7,1.1-.4.5-.8.9-1.3,1.4-.4.5-.7.9-1,1.4-.2.3-.4.6-.7.9-.6.8-1,.9-1.8.8-1.1,0-1.4-.5-1.7-.7-.2,0-.3-.2-.4-.3-.4-.3-.7-.4-1-.7-.3-.2-.6-.4-.9-.7h0Z"/>
  </g>
  <g>
    <path class="st2" d="M60.3,222.7c-.3.2-.5.4-.8.6-.4.2-.7.4-1.5.5-.4,0-.7,0-1,0-.2,0-.5,0-.7-.1-.7-.1-.6,0-1.6-.4-.3-.1-.6-.2-.9-.3-1.2-.4-1.7-.9-2.1-1.2-.7-.6-.9-.8-1.2-1.2-.4-.5-.8-1-1.2-1.5-.3-.3-.5-.6-.7-.9l-.7-.9c-.2-.3-.4-.7-.6-1-.2-.4-.5-.7-.7-1-.1-.2-.3-.5-.5-.8-.5-.7-1-1.4-1.1-2.2,0,0,0-.5,0-.7.2-.3.6-.5,1.1-1,.2-.2.4-.4.7-.6.3-.2.6-.4.8-.6.4-.3.8-.8,1.3-1.1.2-.2,1-.8,1.9-.5.4.1.6.3.7.5.2.2.2.4.3.7.1.2.2.3.3.6.1.2.2.4.3.7,0,.2.3.4.4.6.1.3.2.5.3.8.1.3.3.6.5.8.1.2.2.4.3.7,0,.2.2.3.3.5.2.3.2.4.3.6.2.3.8.5,1,.2,0,0,.1-.1.2-.3.2-.5-.2-1.1-.2-1.1,0-.2,0-.3-.2-.5,0-.2,0-.3-.2-.5,0-.3-.1-.7-.2-1-.4-1.7-.3-1.5-.4-2.7,0-.5-.1-1.1,0-1.6,0-.7.1-1,.3-1.7.1-.5.2-.8.3-1,0-.2.2-.5.5-.9.1-.2.3-.5.4-.7.5-.8.9-1,1.2-1.3.2-.2.4-.4.6-.6,1-.8,1.9-.9,2.3-1,0,0,.8-.3,1.2-.3.9-.1.8,0,1.4,0,.2,0,.5,0,.7,0,.3,0,1.2.3,1.6.5.4.1,1.3.7,1.6.9,0,0,1.2,1,1.7,1.6l.5.7.7.7c.6.6,1.1,1.4,1.6,2.2.7.9.8,1,1.3,2,0,.1.2.4.3.9,0,.2,0,.5,0,.7-.1.8-.7,1.2-1.3,1.6l-.9.7c-.3.2-.6.5-.8.7-.9.7-1.3,1-1.9.9-.8,0-.8-.2-1.3-.5-.1-.1-.3-.2-.4-.3-.3-.4-.4-.9-.6-1.3s-.5-.7-.7-1.1c-.1-.2-.3-.6-.6-1-.2-.2-.7-.8-1.1-.5-.1.1-.2.3-.2.5,0,.7.3,1.2.4,1.4.1.3.3.7.4,1,.2.6.2,1.3.3,2,0,.5.2,1,.3,1.5,0,.5,0,.8,0,1.6,0,.2,0,.5,0,.7,0,.7-.1.8-.3,1.1,0,.1,0,.3-.2.6,0,.2-.2.3-.3.5-.1.2-.2.4-.3.6,0,.1-.8,1.3-1.5,1.9-.4.3-.9.6-1.4.9Z"/>
    <path class="st2" d="M70.5,240.2c-.3-.2-.5-.3-.8-.6-.4-.3-.6-.5-1-.9-.4-.3-.8-.5-1.2-.9-.2-.2-.8-.8-.9-1-.2-.4-.4-.7-.6-1-.3-.5-.6-.9-.9-1.6-.1-.4-.2-.7-.3-1.1,0-.3-.4-1.2-.5-2.3,0-.1,0-.2,0-.4v-.5c0-.2,0-.4,0-.6v-.8c-.1-.2-.1-.3-.2-.6,0-1.3.4-2,.7-3,.1-.4.3-.7.4-1.2.2-.4.4-.7.5-.8l.4-.6c.2-.3.3-.5.6-.8.7-.9.9-.8,1.7-1.6.4-.5.7-.9,1.2-1.2.5-.4,1-.6,1.5-.9.5-.3.8-.5,1.3-.7.2,0,1.3-.5,1.5-.5.5-.2.8,0,1.8-.2l1.2-.2c.3,0,.5,0,.8,0,.4,0,1,0,1.7.2.5.1.8.3,1.3.4.6.2,1,.3,1.5.5.4.2.7.3,1,.5.3.1.4.2.7.3,0,0,1.5,1.1,1.6,1.1.5.4,1,.8,1.5,1.3.3.3.6.5.9.8.9.8,1.1,1.4,1.4,1.9.3.4.5.7.7,1.1.1.3.2.6.4.9.2.5.5.8.7,1.3.1.4.2.6.4,1,.2.5,0,.8,0,1.3,0,.4.1,1,0,1.5,0,.4,0,.7-.1,1.1,0,.5,0,.8-.1,1.3,0,.5-.1.7-.2.9,0,.2-.2.6-.4,1-.1.3-.2.5-.3.8-.2.6-.3.7-.8,1.6-.1.2-.3.4-.5.7-.2.3-.5.6-.6.7-.3.3-.4.4-.7.7-.2.2-.2.4-.5.6-.9,1.1-1.3,1.2-2.1,1.6-.3.2-.5.3-.8.5-.5.3-.8.6-1.3.9,0,0-1.4.6-2.2.7-.2,0-.3,0-.5,0-.9,0-.7,0-1.5,0-.5,0-.8.1-1.7,0-.9-.1-1.1-.4-1.9-.6-.5-.1-.8-.2-1.2-.3-.3-.1-.5-.2-.7-.3-1.2-.5-1-.5-1.8-1-.4-.2-.6-.4-.9-.6l-.4-.3ZM79.3,225.9c-.4,0-.6,0-1-.1-.3,0-.5-.2-.8-.2-.8-.1-1.1.1-1.7.4-.4.1-.9.3-1.4,1,0,.1-.6.8-.6,1.6,0,.2,0,.3,0,.5t0,0c0,.1,0,.6,0,1,.1.8.5,1.4.6,1.5,0,0,.2.3.4.4.2.1.3.2.4.3,0,.1.2.2.3.3.2.2.4.2.6.4.2.1.3.2.5.3.2.1.3.1.4.2.2,0,.4.1.7.2.3,0,.5,0,.6,0,.2,0,.4-.1.7-.2.2,0,.4,0,.7,0,.4,0,1.3-.4,1.8-1.1.3-.4.3-.6.6-1.4,0-.1.1-.2.1-.3,0-.1,0-.2,0-.3,0,0,0-.2,0-.3,0-.5-.1-.9-.2-1.1,0-.2-.2-.5-.3-.7-.1-.2-.2-.4-.4-.6-.2-.4-.4-.9-1.1-1.4-.3-.2-.7-.4-1-.5Z"/>
    <path class="st2" d="M104.4,236.4c-.1.2-.2.4-.3.6-.2.4-.3.7-.4,1-.4.8-.8,1.3-1.2,2.1-.2.4-.3.7-.4,1-.2.5-.3.8-.5,1.2-.3.6-.5.9-.7,1.5-.4.8-.5,1.4-.3,1.8,0,.1.1.2.2.4.3.4.4.4.6.5.1,0,.6.2,1,.4.2,0,.4.1.5.2.4.2.6.3.9.5.3.1.5.2.7.3.3.1.8.5.9,1,0,.1,0,0,0,.2,0,.4,0,.9,0,.9,0,0,0,.2,0,.4-.1.3-.3.4-.4.7-.2.4-.2.5-.3.7l-.2.5c-.3.7-.6,1.2-.9,1.9-.2.4-.2.7-.4,1.1-.2.5-1,1.4-1.9,1.5-.2,0-.5,0-.7-.2-.6-.3-1.1-.6-1.7-1-.7-.3-1.2-.5-1.9-.7-.7-.3-1.2-.5-1.9-.8-.5-.2-.8-.4-1.3-.6l-.4-.2c-.3-.1-.5-.3-.9-.5h-.1c-.5-.3-.9-.4-1.5-.6-.5-.2-.8-.3-1.3-.5-.8-.4-1.5-1-1.5-1.9,0-.3.2-.7.2-.7,0-.1,0-.3.2-.6.2-.4.4-.7.6-1.2.1-.3.2-.6.4-.9.4-.8.7-1.4,1.1-2.2.7-1.5.9-2.6,1.6-4.1.3-.7.6-1.2.9-1.8.3-.7.6-1.2.9-1.9.3-.6.6-1,.8-1.6.4-.9.6-1.6,1-2.5.3-.6.5-.9.8-1.5s.2-.4.2-.6c.6-1.2,1.5-1.7,2.3-1.5.2,0,.3,0,.5.2.9.4,1.4.8,2.3,1.2.8.4,1.4.4,2.2.8.3.1.6.3.8.5,1.1.8.9,1.8.5,2.7-.2.4-.3.7-.5,1.1-.1.3-.3.7-.4,1h0Z"/>
    <path class="st2" d="M135.9,244.8c-.3,1.4-.3,1.3-.6,2.3,0,.3-.1.5-.2.7,0,.2-.2.6-.3,1.1-.1.5-.1.9-.2,1.4,0,.5-.1.8-.2,1.3-.2.9-.4,1.7-.6,2.6,0,.3,0,.6-.1.9,0,0-.5,2.1-1.1,3.1-.2.3-.3.5-.5.8-.2.3-.3.6-.5.9-.3.3-.5.5-.8.8-.3.4-.5.9-1.6,1.6-.8.5-.7.4-1.5.7-.2,0-.4.1-.6.2-.1,0-.8.2-1.3.3-.7,0-1.8,0-2.4,0h-.1c-.4-.1-.7-.2-1.2-.3-.7-.1-1.2,0-1.8-.2-.8-.2-1.4-.4-2.2-.6-.3,0-.5,0-.7-.1-.2,0-.3,0-.5,0-.2,0-.4-.1-.6-.2q-.2,0-.3-.1c-.4-.1-1-.4-1-.4-.2,0-.4-.2-.6-.3-.4-.2-.7-.3-1-.6s-.6-.6-.9-1c-.5-.5-.9-.7-1.4-1.3-.3-.3-.6-.8-.7-.9-.6-.8-.7-1.5-.7-1.8-.1-.4-.3-.6-.4-1,0-.3,0-.5-.1-.9,0-.2,0-.3,0-.5,0-.1,0-.3,0-.3,0-.3,0-.4,0-.5l.4-2c.2-.8.3-1.3.5-2.1.1-.7.2-1.1.3-1.8,0-.4.2-.7.3-1.1,0-.2,0-.3,0-.6.1-.7.3-1.2.5-1.9.2-1,.3-1.7.5-2.8,0-.5.2-.8.3-1.2,0-.3.1-.5.2-.8,0-.3,0-.6.1-1,0-.4.2-.6.3-.7.5-.8,1.2-.7,1.8-.5.3,0,.5.1.8.2.2,0,.3,0,.5.1,1,.2,1.6.3,2.6.5.4,0,.6.2,1,.2l.8.2c.4,0,.9.2,1.2.4.6.5.6,1.2.5,2,0,.3-.1.4-.3.9,0,.2,0,.3-.2.7-.2.8-.1,1.3-.3,2.1,0,.3-.1.5-.2.8-.2.4-.2.8-.3.9-.1.6-.2,1-.4,1.6-.2.6-.4,1.1-.6,1.6,0,.3,0,.5-.1.8,0,.4,0,.3,0,.6-.1.6-.2,1-.4,1.5-.1.6-.2,1,.2,1.7.1.3.2.4.3.5.1.1.4.3.5.4.1,0,.4.3.5.3.2,0,.4,0,.7.2.1,0,.3.2.6.2,0,0,.6,0,1.1,0,.2-.1.3-.2.5-.2.2-.1.4-.1.5-.3.5-.3.6-.9.8-1.8,0-.3,0-.5.1-.7.1-.5.3-.9.4-1.4,0-.4,0-.8.1-1.2.1-.4.2-.6.3-.9.2-.8,0-1.4.2-2.3.1-.8.4-1.3.6-2.1.1-.5.1-.8.2-1.3,0-.3.1-.5.2-.8,0-.4,0-.8.1-1.3.1-.5.3-.8.6-.9.1,0,.3-.1.3-.1.1,0,.5,0,.6,0,.2,0,.4,0,.6,0,.3,0,.6.2.9.3.4.1.7.1,1.1.2.4.1.6.2,1,.3.2,0,.5,0,.7.1,1.4.3,1.7.2,2.4.4.5.2.6.2,1,.6.2.3.3.5.3.9,0,.2-.1,1.2-.1,1.4,0,.3-.1.6-.2,1,0,.3,0,.5-.1.8h0Z"/>
    <path class="st2" d="M140,240c.3,0,.6,0,.9,0s.6,0,.9,0c.3,0,.5,0,.8,0h1.1c.5,0,.9,0,1.4-.1.5,0,.8-.1,1.3-.2.7,0,1.3,0,2,0h1.7c.6,0,1.1,0,1.6-.1,1.1,0,1.8-.2,2.9-.3.7,0,1.4,0,1.5,0,.2,0,.6.2.9.5.3.4.4.7.5,1.4,0,.8,0,1.3,0,2.1,0,.5,0,.9,0,1.4,0,.3,0,.6.1.9,0,.9-.2,1.5-1.3,1.6-.5,0-.9,0-1.4,0-.7,0-.9.1-1.3.2-.8.3-1.1,1-1.1,2.2,0,.5,0,.8,0,1.4,0,.3,0,.5.1.8,0,.5,0,.7,0,1.2,0,.4,0,.6,0,.9,0,.4,0,.7,0,1.1,0,.4,0,.7,0,1.1v1c0,.8.1,1.3.2,2.1,0,.7,0,.7,0,1.2,0,.7.3,1.1.3,1.8,0,.6-.1.9-.3,1.2-.5.7-1.3.8-1.9.8-.5,0-.8,0-1.3,0-.9,0-1.5,0-2.3,0-.7,0-1.2.1-1.9.1-.2,0-.4,0-.6,0-.4,0-1.1-.3-1.3-.8,0-.1-.2-.7-.3-1.1,0-.5,0-.8,0-1.3,0-.4,0-.7,0-1.1,0-1.2-.2-2-.2-3.2,0-1.2,0-2.1,0-3.3,0-.9-.1-1.5-.2-2.4,0-.5,0-.9,0-1.4,0-.7-.1-1-.4-1.4,0-.1-.1-.2-.4-.3-.2,0-.7,0-.9,0-.3,0-.5,0-.8-.1-.2,0-.5,0-.7,0-.8,0-1.3-.4-1.5-.7-.2-.3-.2-.8-.2-1.1v-1.3c0-.3,0-.6,0-.9,0-.4,0-.8-.1-1.2,0-.4,0-.7-.1-.8,0-.7.1-1,.4-1.3.1-.2.3-.3.3-.4.2,0,.4-.2.8-.2h.3Z"/>
    <path class="st2" d="M173.4,253.5c0,.3.2.5.2.8,0,.3,0,.5.1.7,0,.5.1.8.2,1.3.1.7.5,1.5.5,1.6.2.4.3.7.4,1,.3,1.4-.8,1.9-1.7,2.1-.9.2-1.5.2-2.4.4-.6.1-1.1.3-1.7.5l-1.3.3c-.8.2-1,.2-1.5.1-.3,0-.5-.1-.7-.3-.4-.3-.5-.9-.5-.9-.1-.6-.1-1-.2-1.6l-.8-3.5c-.1-.5-.2-.9-.3-1.3,0-.5,0-.8-.2-1.3-.2-.7-.3-1.1-.5-1.9l-.4-1.6c-.1-.5-.3-.8-.4-1.3-.1-.5-.2-1.1-.3-1.6-.2-.8-.4-1.4-.5-2.2,0-.5-.1-.9-.2-1.4,0-.4-.2-.6-.3-1.1-.1-.4-.2-.8-.4-1.2,0-.3-.2-.6-.2-.9,0-.4,0-.6,0-.8,0-.7.3-1.3,1.4-1.6.8-.2,1.3,0,2.1-.3.4,0,.7-.2,1.2-.3,1.4-.5,2.2-.6,2.9-.7.3,0,.5,0,.6,0,.4,0,.7.2.8.3.6.4.7.8.8,1.3.3,1.2.3,2,.6,3.2.3,1.4.7,2.4,1,3.8.3,1.2.3,2,.5,3.2l.6,2.9c0,.4.2.7.3,1.2.1.3.2.5.3.8h0Z"/>
    <path class="st2" d="M193.5,254.5c-.3.1-.5.3-.9.4-.5.2-.8.3-1.2.4-.5.2-.8.4-1.4.6-.3,0-1.1.3-1.3.3-.4,0-.8,0-1.2,0-.6,0-1.1.1-1.8,0-.4,0-.7-.2-1.1-.2-.3,0-1.2-.2-2.3-.6-.1,0-.2-.1-.3-.2l-.5-.2c-.2-.1-.3-.2-.5-.3l-.7-.3c-.2,0-.3-.1-.5-.2-1.2-.5-1.6-1.3-2.3-2.1-.3-.3-.5-.6-.8-.9-.2-.4-.4-.7-.4-.8l-.3-.7c-.2-.3-.3-.5-.5-.9-.5-1-.3-1.2-.6-2.3-.2-.6-.4-1-.5-1.7,0-.6,0-1.1,0-1.8,0-.5,0-.9,0-1.4,0-.2.2-1.4.2-1.6.1-.5.3-.7.7-1.6l.4-1.1c.1-.3.2-.4.4-.8s.5-.9,1-1.4c.3-.4.6-.6,1-.9.4-.4.7-.7,1.2-1.1.3-.3.6-.4,1-.7.2-.2.4-.3.6-.5,0,0,1.6-.8,1.7-.8.6-.3,1.2-.5,1.8-.7.4-.2.7-.3,1.2-.4,1.1-.4,1.7-.3,2.3-.3.5,0,.8,0,1.3,0,.4,0,.6,0,1,0,.6,0,.9,0,1.5,0,.4,0,.7,0,1.1.2.5.1.8.3,1.2.5.4.2,1,.4,1.4.6.4.2.5.4.9.6.4.3.7.4,1.1.7.4.3.5.4.7.6s.4.5.7.8c.2.2.4.4.6.6.4.5.5.6,1,1.5.1.2.2.5.4.8.2.4.3.7.3.8.1.4.1.6.3,1,.1.3.2.4.3.7.5,1.3.4,1.7.4,2.6,0,.3,0,.6,0,.9,0,.6.1,1,.1,1.6,0,0-.1,1.5-.4,2.3,0,.2-.1.3-.2.5-.4.8-.4.6-.7,1.3-.3.5-.3.8-.8,1.5-.5.7-.9.8-1.5,1.4-.3.3-.5.6-.9.9-.2.2-.4.3-.6.5-1.1.8-.9.6-1.7,1.1-.4.2-.6.4-1,.5l-.5.2ZM185.1,240c-.2.3-.4.5-.6.8-.2.2-.4.4-.6.6-.5.7-.4,1-.5,1.7,0,.4-.1,1,.2,1.7,0,.1.4.9,1.1,1.3.2,0,.3.1.4.2t0,0c.1,0,.5.4.9.5.7.3,1.5.2,1.7.2,0,0,.3,0,.5-.1.2,0,.3-.2.5-.2.1,0,.3,0,.4-.1.3-.1.4-.2.6-.4.2-.1.3-.2.5-.3.2-.1.3-.2.3-.3.2-.2.3-.3.5-.5s.3-.4.3-.6c0-.2,0-.4.2-.7,0-.2.2-.4.3-.6.1-.4.3-1.3,0-2.1-.2-.4-.4-.6-1-1.2,0-.1-.1-.2-.2-.3,0,0-.1-.1-.2-.2,0,0-.2-.1-.3-.2-.5-.3-.9-.3-1-.3-.2,0-.5,0-.7,0-.3,0-.4,0-.7,0-.4,0-1,0-1.7.3-.4.2-.7.4-1,.7Z"/>
    <path class="st2" d="M220.2,216.7c.4.5.7.9,1.1,1.4.4.6.6,1,1.1,1.5.8,1,1.6,1.6,2.4,2.6.5.6.8,1.1,1.4,1.7l1.8,2.2c.4.4.5.6.7.8.3.3.5.5.8.8.7.9.3,1.8-.4,2.4-.5.4-.9.5-1.3.9-.5.4-.8.7-1.2,1.1-.3.3-.4.5-.7.7-.2.2-.4.3-.6.4-.3.3-.8.7-1.4.7-.2,0-.2,0-.5,0-.1,0-.2,0-.4,0-.6,0-1.7-.2-2.3-.4-.6-.2-1-.3-1.5-.5-.5-.2-.8-.2-1.3-.3-.3,0-.5-.1-.8-.2-.2,0-.4,0-.6-.1-.2,0-.4-.2-.6-.2-.2,0-.4,0-.7-.2-.4-.1-.6-.2-.8-.2-.2,0-.4,0-.5.1,0,0-.1.2-.2.3,0,.4.1.6.5,1,.3.3.5.5.8.9l.7.9c.2.2.3.4.5.6l.5.6c.3.4.7.7.8.7.3.3.3.3.4.5.1.1.3.5.4.6,0,.4,0,1-.5,1.4-.3.3-.7.4-1,.7-.5.4-.7.7-1.2,1.1-.6.5-1,.8-1.6,1.3-.4.3-.6.6-1,.9-.2.2-.3.3-.5.5-.4.3-1.1.5-1.7.2-.4-.2-.6-.5-.6-.6-.3-.4-.5-.7-.8-1.1s-.6-.7-.8-1.1c-.3-.4-.5-.9-1.2-1.7-.6-.8-1.1-1.3-1.8-2.1-.6-.8-1.1-1.2-1.7-2-.6-.8-1-1.3-1.6-2.1-.5-.7-.9-1.1-1.3-1.8-.6-.8-.9-1.3-1.5-2-.5-.5-.7-.7-1-1,0,0-1-.8-1.5-1.4-.3-.3-.5-.6-.6-1,0-.2-.1-.4-.1-.5,0-.3,0-.3,0-.4.1-.3.4-.6.9-1.1h0c.3-.3.6-.5.9-.8h0c.5-.5.8-.8,1.4-1.2l.9-.7c.3-.3.6-.6.9-.9.8-.6,1.1-.8,1.8-.7.4,0,.7.1.8.2.2,0,.3.1.5.2.4.1.6.2.9.3.3.1.5.2.8.3,0,0,.5.2.8.2.2,0,.4,0,.5,0,.3,0,.3.1.7.3.6.3.8.4,1.5.5.3,0,.5.1.8.2.2,0,.2,0,.4,0,0,0,.1,0,.2,0q0,0,0,0c.3,0,.6-.2.6-.2.2-.1.3-.4,0-.8-.2-.2-.4-.4-.5-.6-.3-.3-.4-.5-.7-.8l-.8-1c-.3-.4-.6-.7-.9-1.1-.3-.3-.5-.4-.7-.7-.3-.4-.4-.7-.4-1.1,0-.7.2-1.1.9-1.7.3-.2.5-.4.9-.7l.3-.3c.3-.2.6-.4.9-.6,1-.8,1.4-1.4,2.5-2.1.4-.3.6-.3.9-.3.7,0,1.2.2,1.9.9.2.3.4.5.6.8.2.2.3.4.5.7.3.5.6.9.9,1.4s.7.7,1.1,1.2l.9,1.1Z"/>
    <path class="st2" d="M241.6,204.6c.3.2.5.4.7.6.3.3.5.6.9,1.3.1.3.3.6.3,1,0,.2,0,.5,0,.7,0,.7.1.6,0,1.6,0,.3,0,.6,0,1,0,1.2-.4,1.8-.7,2.3-.4.9-.5,1.1-.9,1.5-.4.5-.8,1-1.2,1.5-.2.3-.4.7-.7.9l-.7.9c-.3.3-.6.5-.8.8-.3.3-.5.7-.8.9-.2.2-.4.4-.6.6-.5.6-1.1,1.3-1.9,1.6,0,0-.4.2-.7.1-.3,0-.7-.4-1.2-.8-.2-.2-.5-.3-.7-.5-.2-.2-.5-.5-.8-.7-.5-.3-.9-.6-1.4-.9-.2-.2-1-.7-1-1.7,0-.4.2-.7.3-.8.1-.2.4-.3.5-.5.2-.1.3-.3.5-.4.2-.2.4-.3.6-.5.2-.2.3-.4.5-.5.2-.2.4-.3.6-.5.2-.2.5-.4.7-.7.2-.2.4-.3.5-.5.1-.1.3-.3.4-.4.3-.3.3-.3.5-.5.2-.3.2-.9,0-1.1,0,0-.2,0-.3,0-.5,0-1,.5-1,.5-.1.1-.3.2-.5.3-.1,0-.3.2-.4.3-.3.2-.6.3-.9.5-1.6.8-1.3.7-2.5,1.1-.5.2-1,.4-1.5.5-.7.2-1,.1-1.7.1-.5,0-.8,0-1,0-.3,0-.5,0-1-.2-.3,0-.5-.1-.8-.2-.9-.3-1.2-.6-1.6-.8-.2-.2-.5-.3-.7-.5-1-.7-1.3-1.6-1.6-2,0,0-.5-.7-.6-1-.3-.8-.2-.7-.4-1.3,0-.2,0-.5-.1-.7,0-.3,0-1.3,0-1.6,0-.4.3-1.4.5-1.8,0,0,.6-1.4,1.1-2l.5-.7.5-.8c.5-.8,1.1-1.4,1.7-2.2.7-.9.7-1,1.6-1.7.1,0,.4-.3.8-.5.2-.1.5-.2.7-.2.8,0,1.3.4,1.9.8l1,.7c.3.2.6.4.9.6.9.7,1.2,1,1.4,1.6.1.8,0,.8-.2,1.4,0,.2-.1.3-.2.5-.3.4-.8.6-1.1.9s-.6.7-.9,1c-.2.1-.5.4-.8.8-.1.2-.6.9-.3,1.2.2,0,.4,0,.5,0,.6-.2,1-.6,1.2-.7.3-.2.6-.5.9-.7.6-.4,1.2-.6,1.8-.8.5-.2.9-.5,1.4-.7.5-.2.7-.3,1.6-.4.2,0,.5,0,.7-.2.7-.1.8,0,1.2,0,.2,0,.3,0,.7,0,.2,0,.4.1.6.2.2,0,.5,0,.7.1.2,0,1.5.4,2.2,1,.5.3.8.7,1.2,1.1Z"/>
  </g>
  <g>
    <path class="st2" d="M24.7,154.5h-.5c-.2,0-.3,0-.4,0h-.6s-.5,0-.5,0h-1c0,0-.2,0-.2,0,0,0-.2,0-.4,0h-1.3c0,0-.5,0-.5,0h-.4c0,0-.1,0-.2,0-.1-.1-.2-.3-.2-.5v-.7s0-.3,0-.3c0-.2,0-.5,0-.7s0-.5,0-.9v-.3c0-.5.2-.8.8-1.1.2-.1.3-.2.4-.3l.7-.4.6-.4.4-.3.4-.2c.1,0,.3-.2.5-.4.2-.1.3-.2.4-.3.3-.2.5-.3.5-.4l.4-.3.4-.3.5-.4.4-.4.7-.6c.4-.4,1.2-1.4,1.6-2,.5-.7.5-.8.7-1.5,0-.4.1-.5.1-.8,0-1.4-.6-2.3-1.6-2.4h-.3s-.1,0-.1,0c-.6,0-1.1.5-1.2,1.1v.3c0,.2,0,.3,0,.3v.7c0,.8-.7,1.2-2.1,1.2h-2.4c-.7,0-1.1-.1-1.3-.5,0-.1,0-.3-.1-.5,0-.6-.1-.8-.1-1s0-.4,0-.7c0-.4,0-.7,0-.8,0,0,0-.3.3-.8l.2-.5c.1-.3.3-.7.5-.9,0-.1.3-.3.5-.6.2-.2.3-.4.3-.4,0,0,.2-.2.3-.3.4-.3.7-.5,1-.6.3-.2.7-.3,1.1-.4,1-.3,1.7-.5,2-.5h1.7s.2,0,.2,0h.2c.9,0,2.5.4,3.4.7.5.2,1.3.7,1.7,1l.5.4c.2.2.3.3.4.4l.6.9c0,.2.1.3.2.3,0,.2.2.5.3.8.2.9.3,1.8.3,2.2s0,.5,0,.9c-.1,1.4-.2,1.7-.7,2.7-.4.8-1,1.7-1.4,2.2-.2.2-.4.5-.6.7-.2.1-.3.3-.3.3l-.4.3-.4.3-.3.2-.3.2-.4.3h-.2c0,.2-.1.3-.3.3-.4.2-.5.3-.5.5s.1.2.4.2h.7s1.9-.1,1.9-.1c.8,0,.9,0,1.1,0,1.1,0,1.6.3,1.6.9s0,.3,0,.5c0,.1,0,.3,0,.5v.8s0,1,0,1v.3s0,.4,0,.4c0,.3-.1.6-.4.8-.2.2-.6.4-.8.4s-.2,0-.3,0-.3,0-.8,0h-1.1c0,0-.9,0-.9,0h-1.5c-.1,0-.3,0-.5,0-.3,0-.5,0-.7,0s-.3,0-.5,0c-.5,0-.8,0-1.7,0h-.4Z"/>
    <path class="st2" d="M36.7,142.9c0,0,0-.3,0-.6,0-.2,0-.3,0-.4,0,0,0-.2,0-.4,0-.5,0-.8.2-1.1,0-.2.2-.7.5-1.5,0-.3.2-.4.2-.5.1-.3.4-.8.8-1.3v-.2c.6-.6,1-1.1,1.3-1.3l.5-.4.4-.4c.4-.4,1.3-.8,2.3-1.1.8-.2,1.4-.4,1.7-.4h1.1s.6,0,.6,0c1.1,0,2.9.8,3.9,1.7l.2.2c.6.5.9.8.9.8,0,0,.2.2.3.5h.1c0,.1.1.4.1.4.3.5.4.6.5.9.2.4.4.8.5,1.5v.6c.2.3.3.5.3.7v1c0,0,.2,1.3.2,1.3v.2s0,.7,0,.7v.5s0,.4,0,.4v.2c0,.9,0,1.4,0,1.6l-.2.6c0,0,0,.2,0,.4,0,.2,0,.3,0,.5v.4c-.1,0-.1.2-.2.3,0,.3,0,.5-.2.7l-.2.5s0,.1,0,.2c-.3.9-.7,1.4-1.5,2.2s-.7.6-1,1c-.1.1-.3.2-.4.3,0,0-.2.2-.5.3l-.8.4-.9.2c-1.1.3-1.2.3-1.7.3h-1.1c-.5,0-.9,0-1.8-.4h-.2c0,0-.5-.3-.5-.3l-.5-.3-.4-.2c-.4-.1-.9-.6-1.2-.9-.9-1-1.8-2.2-2-2.9l-.3-.7-.2-.7c0-.3-.1-.4-.2-.7,0-.4,0-.5-.1-.7-.1-.4-.2-.8-.2-.9v-.7c0,0,0-.2,0-.2v-.5h0v-.4c0-.2,0-.4,0-.4v-1ZM47.4,145.2c0,0,0-.2,0-.5,0-.2,0-.4,0-.5,0-.1,0-.2,0-.5,0-.2,0-.3,0-.5v-.3c0-.3,0-.4-.1-1,0-.2,0-.3,0-.5,0-.3,0-.5,0-.6,0-.2-.1-.3-.3-.6l-.2-.4c-.3-.5-.9-.9-1.5-.9-1.4,0-2.2,1.1-2.2,3.1v1.3s0,.2,0,.2h0v.5h0c0,.1,0,.3,0,.5v.2h0c0,.7.2,1.6.3,2v.3c0,0,0,0,0,.1,0,.3.1.5.4.8.4.5,1,.9,1.4.9h.4c0,0,.2,0,.2,0,.9,0,1.7-1.4,1.7-2.9v-.8Z"/>
  </g>
  <g>
    <path class="st2" d="M240.6,154.4h-.5c-.2,0-.3,0-.4,0h-.6s-.5,0-.5,0h-1c0,0-.2,0-.2,0,0,0-.2,0-.4,0h-1.3c0,0-.5,0-.5,0h-.4c0,0-.1,0-.2,0-.1-.1-.2-.3-.2-.5v-.7s0-.3,0-.3c0-.2,0-.5,0-.7s0-.5,0-.9v-.3c0-.5.2-.8.8-1.1.2-.1.3-.2.4-.3l.7-.4.6-.4.4-.3.4-.2c.1,0,.3-.2.5-.4.2-.1.3-.2.4-.3.3-.2.5-.3.5-.4l.4-.3.4-.3.5-.4.4-.4.7-.6c.4-.4,1.2-1.4,1.7-2,.5-.7.5-.8.7-1.5,0-.4.1-.5.1-.8,0-1.4-.6-2.3-1.6-2.4h-.3s-.2,0-.2,0c-.6,0-1.1.5-1.2,1.1v.3c0,.2,0,.3,0,.3v.7c0,.8-.7,1.2-2.1,1.2h-2.4c-.8,0-1.1-.1-1.3-.5,0-.1,0-.3-.2-.5,0-.6-.1-.8-.1-1s0-.4,0-.7c0-.4,0-.7,0-.8,0,0,0-.3.3-.8l.2-.5c.1-.3.3-.7.5-.9s.3-.3.5-.6c.2-.2.3-.4.3-.4,0,0,.2-.2.3-.3.4-.3.7-.5,1-.6.3-.2.7-.3,1.1-.4,1-.3,1.7-.5,2-.5h1.7s.2,0,.2,0h.2c.9,0,2.5.4,3.4.7.5.2,1.3.7,1.7,1l.5.4c.2.2.3.3.4.4l.6.9c0,.2.2.3.2.3,0,.2.2.5.3.8.2.9.3,1.8.3,2.2s0,.5,0,.9c-.2,1.4-.2,1.7-.7,2.7-.4.8-1,1.7-1.4,2.2-.2.2-.4.5-.6.7-.2.1-.3.3-.3.3l-.4.3-.4.3-.3.2-.3.2-.4.3h-.2c0,.2-.1.3-.3.3-.4.2-.5.3-.5.5s.1.2.4.2h.7s1.9-.1,1.9-.1c.8,0,.9,0,1.1,0,1.1,0,1.6.3,1.6.9s0,.3,0,.5c0,.1,0,.3,0,.5v.8s0,1,0,1v.3s0,.4,0,.4c0,.3-.2.6-.4.8-.2.2-.6.4-.8.4s-.2,0-.3,0-.3,0-.8,0h-1.1c0,0-.9,0-.9,0h-1.5c-.1,0-.3,0-.5,0-.3,0-.5,0-.7,0s-.3,0-.5,0c-.5,0-.8,0-1.7,0h-.4Z"/>
    <path class="st2" d="M262.6,138.2h-1c-1,0-1.3.2-1.3.8s0,.6.2.6h.8c0,0,.2.1.2.1h.5c.2,0,.4,0,.6,0h.8c0,.1.5.2.5.2,1.7.3,3.8,1.8,4.5,3.3,0,.2.1.3.2.4.1.3.2.5.2.5.2.5.3,1.5.3,2.3s0,.4,0,.6c0,0,0,.2,0,.4,0,0,0,.2,0,.4-.1.9-.2,1.3-.4,1.7-.2.4-.4.9-.8,1.4-.7,1.1-1.6,2-2.2,2.2l-.3.2-.8.4c-.2,0-.6.2-1.4.5-.3,0-.5.1-.7.2-.2,0-.5.1-.9.1h-.2c-.2,0-.2,0-.3,0-.3,0-.5,0-.5,0h-.9s0,0,0,0l-2.1-.3c-.1,0-.3,0-.5-.2l-1.2-.4c-.8-.2-1.3-.5-1.7-.9l-.7-.6-.4-.3c-.3-.3-.4-.5-.4-.9s0-.5.6-1.1c.6-.8,1-1.2,1.1-1.5l.4-.8c.2-.4.5-.6.8-.6.5,0,.8.2,1.5.8s.3.3.3.3c.1.1.3.2.6.4.3.2.6.4.8.4.3.1,1,.2,1.5.2s.8-.2,1.3-.4c.7-.3,1.1-1.1,1.1-2.2s-.5-1.5-1.1-2.1c-.2,0-.3-.2-.6-.4-.4-.2-.6-.3-.9-.3-.4,0-.8,0-1,0h-.5s-.1,0-.4,0h-.5c0,0-.2,0-.4.2-.5,0-.8.2-1.1.2-.8,0-1.3-.4-1.3-1.1s0-.3,0-.4c0-.2,0-.3,0-.4v-.3c0-.2,0-.4,0-.4v-2.1c0-.8,0-1.5,0-2,0-.4,0-.7,0-.8v-2c0,0,0-.5,0-.5,0-.6.5-.9,1.3-.9h1.2c0,0,.3,0,.3,0h.9c0,0,.1,0,.3,0h3.9s.3,0,.3,0h.6c0,0,.5,0,.5,0,.3,0,.6,0,1.1,0,.6,0,1,0,1.2,0,1.2,0,1.4.5,1.4,3.4v.4c0,.5-.1.8-.4,1,0,0-.1,0-.2,0q-.2,0-.3,0s-.3,0-.8,0h-1l-2.1-.2Z"/>
  </g>
  <g>
    <path class="st2" d="M165.7,112.1c0,1.6-1,3-2.1,4s-2.4,2.2-4,2.2-3.3-.7-4.4-1.8-1.3-2.7-1.3-4.4.2-3.3,1.3-4.4,2.8-1.3,4.4-1.3,2.9.6,4,1.7,2.1,2.4,2.1,4Z"/>
    <path class="st1" d="M160,109c.9,0,1.8.3,2.4.9s.8,1.7.6,2.7,0,.6.4.7.6,0,.7-.4c.3-1.3.2-2.7-.8-3.8s-2.1-1.3-3.3-1.3-.7,1.1,0,1.1h0Z"/>
    <path class="st2" d="M171.1,100.7c0,2.3-2.2,4.2-4.5,4.2s-4.5-1.9-4.5-4.2,2.2-4.4,4.5-4.4,4.5,2.1,4.5,4.4Z"/>
    <path class="st1" d="M166.9,98.4c0,0,.1,0,.2,0s.1,0,0,0c0,0,0,0,0,0,.1,0,.2.1.4.2s0,0,0,0c0,0,0,0,0,0,0,0,0,0,0,0,0,0,0,0,.1.1s.1,0,.1.2,0,0,0,0,0,0,0,0c0,.1.2.2.2.3s0,.1,0,.2c0,0,0,0,0,0,0,0,0,0,0,.1,0,.1,0,.3.1.4,0,0,0,0,0,0,0,0,0,0,0,.1,0,0,0,.2,0,.2,0,.2.2.4.4.4s.4-.2.4-.4c0-.7-.2-1.3-.6-1.9s-1-.9-1.7-1.1-.4,0-.5.3,0,.4.3.5h0Z"/>
    <path class="st2" d="M159.8,96.6c0,1.5-.9,3.3-2.4,3.3s-2.7-1.7-2.7-3.3,1.1-2.7,2.7-2.7,2.4,1.2,2.4,2.7Z"/>
    <path class="st1" d="M157.2,95.1c0,0,.1,0,.2,0s0,0,0,0c0,0,0,0,0,0,.1,0,.2.1.3.2s0,0,0,0,0,0,0,0c0,0,0,0,.1.1s0,0,0,0c0,0,0,0,0,0s0,0,0,.1,0,0,0,.1c0,0,0,0,0,0s0,0,0,0c0,0,0,.1,0,.2s0,0,0,0,0,.1,0,0c0,.1,0,.2,0,.3s0,0,0,0c0,0,0,0,0,0,0,0,0,.1,0,.2,0,.2,0,.4.2.4s.4,0,.4-.2c.2-.6.1-1.2-.2-1.7s-.8-.9-1.4-1-.4,0-.4.2,0,.4.2.4h0Z"/>
  </g>
  <path class="st2" d="M125.9,186.4c-3.5,0-7,0-10.4-1s-2.5-.8-3.6-1.3-1-.6-1.5-.9-.5-.3-.8-.5c.3.3-.3-.2-.4-.3-.4-.4-.8-.7-1.2-1.2s-.4-.4-.6-.7.2.3,0,0-.2-.3-.3-.4c-.3-.4-.6-.9-.8-1.4s-.2-.4-.3-.7-.1-.3-.2-.4c-.3-.6.1.3,0-.1-.5-1.1-.8-2.3-1.1-3.5s-.2-1.2-.3-1.7c-.2-.9-.1-.7-.2-1.5-.6-6,0-12,0-18s-.6-16.7-3.7-24.4-4.2-7.9-7.2-11.4-5.9-5.7-9.7-7.4-2.7-.4-3.4.9-.4,2.9.9,3.4c3.3,1.4,5.9,3.3,8.3,6.1s4.7,5.9,6.2,9.4c3.2,7.5,3.7,15.9,3.6,23.9s-2.4,23.9,6.1,32.1c5.4,5.2,13.5,6.1,20.7,6s3.2-5.1,0-5h0Z"/>
  <path class="st2" d="M240.2,177.2c-4.4-2.7-4.9-1.8-9.3-4.5-4.4-2.7-4.8-2.1-9.2-4.8-4.4-2.7-4.2-3-8.6-5.7-.9-.6-2.6-1.2-3.2-.3-.6.9.3,2.7,1.2,3.4,4.3,2.9,4.4,2.6,8.7,5.5,4.3,2.9,3.8,3.6,8.1,6.5q4.2,2.9,8.5,5.8s-.2,0,0,0c3.1,2,6.8-4,3.8-6Z"/>
  <path class="st2" d="M240.2,111.9c-4.4,2.7-4.9,1.8-9.3,4.5-4.4,2.7-4.8,2.1-9.2,4.8-4.4,2.7-4.2,3-8.6,5.7-.9.6-2.6,1.2-3.2.3-.6-.9.3-2.7,1.2-3.4,4.3-2.9,4.4-2.6,8.7-5.5,4.3-2.9,3.8-3.6,8.1-6.5q4.2-2.9,8.5-5.8s-.2,0,0,0c3.1-2,6.8,4,3.8,6Z"/>
  <path class="st2" d="M47.8,177.2c4.4-2.7,4.9-1.8,9.3-4.5,4.4-2.7,4.8-2.1,9.2-4.8,4.4-2.7,4.2-3,8.6-5.7.9-.6,2.6-1.2,3.2-.3.6.9-.3,2.7-1.2,3.4-4.3,2.9-4.4,2.6-8.7,5.5-4.3,2.9-3.8,3.6-8.1,6.5q-4.2,2.9-8.5,5.8s.2,0,0,0c-3.1,2-6.8-4-3.8-6Z"/>
  <path class="st2" d="M47.8,111.9c4.4,2.7,4.9,1.8,9.3,4.5,4.4,2.7,4.8,2.1,9.2,4.8,4.4,2.7,4.2,3,8.6,5.7.9.6,2.6,1.2,3.2.3.6-.9-.3-2.7-1.2-3.4-4.3-2.9-4.4-2.6-8.7-5.5-4.3-2.9-3.8-3.6-8.1-6.5q-4.2-2.9-8.5-5.8s.2,0,0,0c-3.1-2-6.8,4-3.8,6Z"/>
  <path class="st2" d="M144,218.6c-13.8,0-26.4-2.9-37.6-9.4s-22-15.4-28.7-26.9-11.1-24.4-11.1-38.3,4-27.4,10.5-38.6,17.8-19.8,29.3-26.5c11.2-6.5,23.7-11.6,37.6-11.6s26.6,4.8,37.8,11.3,21.2,16,27.9,27.6,10,24.1,10,37.9-2.9,27.1-9.4,38.3-16.9,20.6-28.4,27.3c-11.2,6.5-24,9-37.9,9ZM144,74.6c-12.4,0-24.4,4.1-34.4,9.9-10.3,6-18.1,15.5-24.1,25.8-5.8,10-8.2,21.4-8.2,33.7s3,23.3,8.8,33.3c6,10.3,13.1,20.3,23.4,26.2,10,5.8,22,7.7,34.4,7.7s24.2-2.2,34.2-8c10.3-6,18.9-14.8,24.8-25.1,5.8-10,9.3-21.7,9.3-34.1s-4.2-23.7-10-33.7c-6-10.3-14-19.4-24.3-25.4-10-5.8-21.8-10.3-34.1-10.3Z"/>
  <path class="st2" d="M152.1,181.9c-2-2.4-5-3.8-8.1-3.8s-5.6,1.2-7.6,3.2c-1,1-1.6,1.9-1.9,2.7-.3.7-1,.9-2,.9h-7.6c-.6,0-1.1.5-1.1,1.1v5.8c0,.6.5,1.1,1.1,1.1h7.2s.6,0,.7,0c.3,0,.7,0,1.1.2.3.2.4.4.6.8.2.4.4.7.7,1.1.9,1.3,2.2,2.5,3.6,3.3,1.6.9,3.4,1.3,5.2,1.3s3.4-.4,5-1.2c3-1.5,5.1-4.5,5.6-7.8.5-3.1-.4-6.3-2.5-8.7ZM144,195.4c-3.5,0-6.4-2.9-6.4-6.4s2.9-6.4,6.4-6.4,6.4,2.9,6.4,6.4-2.9,6.4-6.4,6.4Z"/>
  <g>
    <path class="st1" d="M119.3,164c.5-.2,1.1-.4,1.6-.6-4.9,3.4-11.8,2.4-17.2.6h-.2c-7.2-2.7-12.4-10.2-12.5-17.9-.1-4.8.6-10.3,4.3-13.2,4.1-3.6,24-7.5,33.7-5.8-6.2.1-19.4.8-20.3,4.2-1.3,4.5-.9,22.2,1.3,26.3,1,1.9,2.2,3.7,3.9,5.1.7.6,1.5,1.2,2.4,1.5,1.1.4,2.1,0,3.1-.3Z"/>
    <path class="st1" d="M195.5,153.3v.2c-3.9,9-14.5,13.5-23.9,11.9-1.7-.3-3.1-1-4.4-1.9.5.2,1,.4,1.5.5,1,.3,2.1.6,3.1.3.9-.3,1.7-.9,2.4-1.5,1.6-1.4,2.9-3.2,3.9-5.1,2.2-4.1,2.5-21.8,1.3-26.3-1-3.5-14.7-4.1-20.8-4.3,1.3-.3,2.9-.4,4.6-.4,6.4,0,12.2.8,18,2,4.1,1,8.8,1.7,12,4.5,4.7,4.6,4.7,14,2.3,20Z"/>
    <path class="st1" d="M171.6,169.7c-1,1.3-4.4,5.1-9,4.8-5.6-.5-12.3-3.7-18.5-2.5,0,0,0,0,0,0,0,0,0,0,0,0-6.2-1.3-12.9,2-18.5,2.5-4.6.4-7.9-3.4-9-4.7.4,0,.8-.1,1.1-.2,9.6-2.7,14-13.1,17.8-21.8,1.6-3.5,2.5-7.8,5.8-10,4-2.5,7.6.9,9.1,4.8,4.5,10.1,8.9,24.9,21.2,27.1Z"/>
    <path class="st3" d="M144,172.8h0s0,0,0,0c0,0,0,0,0,0Z"/>
    <path class="st3" d="M144,172.8s0,0,0,0h0s0,0,0,0Z"/>
    <path class="st2" d="M144.6,139.6c1.3.8,1.4,3.4,2.1,5.6,1,4,2.1,8.6,2.9,12.7.5,2.1.9,4.2,1.2,6.4.6,3.4.7,5.1-1.2,6.8-1.5,1.3-3.5,1.8-5.6,1.9-2.7,0-6.5-1.1-7.2-3.8-.2-1.1.1-2.3.3-3.4,1-5,3.1-15.5,4.5-21.4.4-1.8,1.4-5.3,2.9-4.7h0Z"/>
    <path class="st1" d="M170.4,123.7c-8.1-.8-16.4-1.2-22.7-1.4-1.9,0-2.7-.2-4.6-.1-6.9.6-19.5.6-30.5,1.9,0,0,3.2-11.4,29-11.4s28,8.9,28.8,11Z"/>
    <path class="st2" d="M199.6,143.3v-.2c-1.1-15.4-9.2-16.9-22.6-18.8-14.7-1.7-26.6-2.7-40.3-2-6.8.3-14.3.6-21.2,1.3-6.3.7-13.7,1.8-18.4,3.9-4,1.5-6.6,5-7.6,9.1-1.7,6.8-2.2,14.9,1,21,3.1,6,8.4,9.9,15.2,11.1,3.7.8,7.4,1.5,10.8,1,.4,0,.8-.1,1.1-.2,9.6-2.7,14-13.1,17.8-21.8,1.6-3.5,2.5-7.8,5.8-10,4-2.5,7.6.9,9.1,4.8,4.5,10.1,8.9,24.9,21.2,27.1.3,0,.6,0,.9.1,5.7.2,11.6-1.1,16.7-3.6,8.2-4.6,11.6-14,10.4-23ZM103.7,164h-.2c-7.2-2.7-12.4-10.2-12.5-17.9-.1-4.8.6-10.3,4.3-13.2,4.1-3.6,24-7.5,33.7-5.8,2.2.4,3.8,1,4.7,2,2.5,2.6,1,7.4.4,11-1,5.1-3.4,9.7-6.1,14.4-2.1,3.5-4.1,6.8-6.9,8.8,0,0,0,0-.1,0-4.9,3.4-11.8,2.4-17.2.6ZM195.5,153.3v.2c-3.9,9-14.5,13.5-23.9,11.9-1.7-.3-3.1-1-4.4-1.9-3.5-2.5-5.8-6.7-8-10.5-3-5.1-5.1-10.8-5.9-16.4-1.3-6.1,1-8.6,5.4-9.5,1.3-.3,2.9-.4,4.6-.4,6.4,0,12.2.8,18,2,4.1,1,8.8,1.7,12,4.5,4.7,4.6,4.7,14,2.3,20Z"/>
  </g>
</svg>